<?xml version="1.0" ?><svg data-name="Layer 1" id="Layer_1" viewBox="0 0 512 512" xmlns="http://www.w3.org/2000/svg"><defs><style>.cls-1{fill:#334d5c;}.cls-2{fill:#f3b562;}.cls-3{fill:#fffad5;}.cls-4{fill:#f26101;}.cls-5{fill:#e6e2af;}.cls-6{fill:#a7a37e;}</style></defs><title/><rect class="cls-1" height="512" rx="256" ry="256" width="512"/><path class="cls-2" d="M104.65,192l126.2,97.08a46.17,46.17,0,0,0,56.3,0L413.35,192,293.93,97.91a56.45,56.45,0,0,0-69.86,0Z"/><rect class="cls-3" height="224.42" width="165.81" x="176.1" y="176.92"/><path class="cls-4" d="M212.46,315.32l40.28-104.89h15l42.93,104.89H294.82l-12.24-31.77H238.72L227.2,315.32Zm30.27-43.07h35.56l-10.95-29q-5-13.24-7.44-21.75a133.7,133.7,0,0,1-5.65,20Z"/><path class="cls-5" d="M287.15,289.05a46.17,46.17,0,0,1-56.3,0L104.65,192V396.72a32.72,32.72,0,0,0,32.72,32.72H380.63a32.72,32.72,0,0,0,32.72-32.72V192Z"/><path class="cls-6" d="M232.06,321.46,115,420.63a32.6,32.6,0,0,0,22.32,8.81H380.63A32.59,32.59,0,0,0,403,420.63l-117-99.17A41.67,41.67,0,0,0,232.06,321.46Z"/></svg>